<?xml version="1.0" encoding="UTF-8"?>
<svg width="32px" height="32px" viewBox="0 0 32 32" version="1.1" xmlns="http://www.w3.org/2000/svg" xmlns:xlink="http://www.w3.org/1999/xlink">
    <title>编辑</title>
    <g id="页面-2" stroke="none" stroke-width="1" fill="none" fill-rule="evenodd">
        <g id="画板备份-2" transform="translate(-435.000000, -1106.000000)">
            <g id="编辑" transform="translate(435.000000, 1106.000000)">
                <rect id="矩形" x="0" y="0" width="32" height="32"></rect>
                <path d="M27,24 C27.5522847,24 28,24.4477153 28,25 C28,25.5522847 27.5522847,26 27,26 L17,26 C16.4477153,26 16,25.5522847 16,25 C16,24.4477153 16.4477153,24 17,24 L27,24 Z M25.7530483,6.03984489 C27.3151455,7.60194206 27.3151455,10.134602 25.7530483,11.6966991 L12.7824856,24.6672619 C12.0323401,25.4174074 11.0149244,25.8388348 9.95405845,25.8388348 L6.95405845,25.8388348 C6.4017737,25.8388348 5.95405845,25.3911195 5.95405845,24.8388348 L5.95405845,21.8388348 C5.95405845,20.7779688 6.37548582,19.7605532 7.12563133,19.0104076 L20.0961941,6.03984489 C21.6582912,4.47774772 24.1909512,4.47774772 25.7530483,6.03984489 Z M18.7318685,10.2313456 L8.53984489,20.4246212 C8.20644689,20.7580192 8.00291284,21.1970054 7.96179908,21.6629819 L7.95405845,21.8388348 L7.95446354,23.8384297 L9.95405845,23.8388348 C10.4255544,23.8388348 10.8798849,23.6723449 11.2384518,23.3719216 L11.368272,23.2530483 L21.5530585,13.067272 L18.8284271,10.3431458 C18.7930331,10.3077517 18.7608469,10.2703646 18.7318685,10.2313456 Z M21.6198311,7.35239304 L21.5104076,7.45405845 L20.1310141,8.83250249 C20.1699704,8.86144739 20.2072991,8.89359062 20.2426407,8.92893219 L22.9670585,11.653272 L24.3388348,10.2824856 C25.1198833,9.501437 25.1198833,8.23510704 24.3388348,7.45405845 C23.5932884,6.70851208 22.4055745,6.67462361 21.6198311,7.35239304 Z" id="形状结合" fill="#595959" fill-rule="nonzero"></path>
            </g>
        </g>
    </g>
</svg>