<?xml version="1.0" encoding="UTF-8"?>
<svg width="32px" height="32px" viewBox="0 0 32 32" version="1.1" xmlns="http://www.w3.org/2000/svg" xmlns:xlink="http://www.w3.org/1999/xlink">
    <title>刷新失效</title>
    <g id="页面-2" stroke="none" stroke-width="1" fill="none" fill-rule="evenodd">
        <g id="画板备份-2" transform="translate(-707.000000, -1106.000000)">
            <g id="刷新失效" transform="translate(707.000000, 1106.000000)">
                <rect id="矩形" x="0" y="0" width="32" height="32"></rect>
                <path d="M11,4 C11.5522847,4 12,4.44771525 12,5 L12,11 C12,11.5522847 11.5522847,12 11,12 C10.4477153,12 10,11.5522847 10,11 L9.99953214,7.09597216 L9.94072856,7.13788896 C7.39807322,8.97572538 5.76346847,11.8655573 5.5374632,15.0975832 C5.12615402,20.9795784 9.48600407,26.070137 15.267557,26.4744225 C15.8184964,26.512948 16.23389,26.9908036 16.1953646,27.5417431 C16.1568392,28.0926825 15.6789835,28.5080761 15.1280441,28.4695506 C8.23799056,27.9877512 3.05443062,21.9354294 3.5423351,14.9580703 C3.79110632,11.400476 5.48365191,8.18732333 8.14350367,5.99960745 L5,6 C4.44771525,6 4,5.55228475 4,5 C4,4.44771525 4.44771525,4 5,4 L11,4 L11,4 Z M20,21 C20,20.4477153 20.4477153,20 21,20 C21.5522847,20 22,20.4477153 22,21 L21.9995321,24.9589722 L22.1309047,24.8651039 C24.6317245,23.017727 26.2358423,20.1442989 26.4602312,16.9353878 C26.8728571,11.0345631 22.5133533,5.9298181 16.732443,5.52557747 C16.1815036,5.48705204 15.76611,5.00919636 15.8046354,4.45825695 C15.8431608,3.90731754 16.3210165,3.49192394 16.8719559,3.53044937 C23.7626521,4.01229379 28.9444938,10.0799523 28.4553593,17.0749007 C28.2081357,20.6103642 26.5425724,23.8077739 23.9200584,26.0013041 L27,26 C27.5522847,26 28,26.4477153 28,27 C28,27.5522847 27.5522847,28 27,28 L21,28 C20.4477153,28 20,27.5522847 20,27 L20,21 Z" id="形状结合" fill="#B4D6FF" fill-rule="nonzero"></path>
            </g>
        </g>
    </g>
</svg>