<?xml version="1.0" encoding="UTF-8"?>
<svg width="32px" height="32px" viewBox="0 0 32 32" version="1.1" xmlns="http://www.w3.org/2000/svg" xmlns:xlink="http://www.w3.org/1999/xlink">
    <title>添加失效</title>
    <g id="页面-2" stroke="none" stroke-width="1" fill="none" fill-rule="evenodd">
        <g id="画板备份-2" transform="translate(-883.000000, -1106.000000)">
            <g id="添加失效" transform="translate(883.000000, 1106.000000)">
                <rect id="矩形" x="0" y="0" width="32" height="32"></rect>
                <path d="M16.25,3.75 C16.8022847,3.75 17.25,4.19771525 17.25,4.75 L17.25,14.25 L27,14.25 C27.5522847,14.25 28,14.6977153 28,15.25 L28,15.75 C28,16.3022847 27.5522847,16.75 27,16.75 L17.25,16.75 L17.25,26.75 C17.25,27.3022847 16.8022847,27.75 16.25,27.75 L15.75,27.75 C15.1977153,27.75 14.75,27.3022847 14.75,26.75 L14.75,16.75 L5,16.75 C4.44771525,16.75 4,16.3022847 4,15.75 L4,15.25 C4,14.6977153 4.44771525,14.25 5,14.25 L14.75,14.25 L14.75,4.75 C14.75,4.19771525 15.1977153,3.75 15.75,3.75 L16.25,3.75 Z" id="形状结合" fill="#BFBFBF"></path>
            </g>
        </g>
    </g>
</svg>