<?xml version="1.0" encoding="UTF-8"?>
<svg width="32px" height="32px" viewBox="0 0 32 32" version="1.1" xmlns="http://www.w3.org/2000/svg" xmlns:xlink="http://www.w3.org/1999/xlink">
    <title>复制</title>
    <g id="页面-2" stroke="none" stroke-width="1" fill="none" fill-rule="evenodd">
        <g id="画板备份-2" transform="translate(-531.000000, -1106.000000)">
            <g id="复制" transform="translate(531.000000, 1106.000000)">
                <rect id="矩形" x="0" y="0" width="32" height="32"></rect>
                <path d="M25,3 C27.209139,3 29,4.790861 29,7 L29,19 C29,21.209139 27.209139,23 25,23 L23,23 L23,25 C23,27.209139 21.209139,29 19,29 L7,29 C4.790861,29 3,27.209139 3,25 L3,13 C3,10.790861 4.790861,9 7,9 L9,9 L9,7 C9,4.790861 10.790861,3 13,3 L25,3 Z M19,11 L7,11 C5.9456382,11 5.08183488,11.8158778 5.00548574,12.8507377 L5,13 L5,25 C5,26.0543618 5.81587779,26.9181651 6.85073766,26.9945143 L7,27 L19,27 C20.0543618,27 20.9181651,26.1841222 20.9945143,25.1492623 L21,25 L21,13 C21,11.9456382 20.1841222,11.0818349 19.1492623,11.0054857 L19,11 Z M12,22 C12.5522847,22 13,22.4477153 13,23 C13,23.5522847 12.5522847,24 12,24 L8,24 C7.44771525,24 7,23.5522847 7,23 C7,22.4477153 7.44771525,22 8,22 L12,22 Z M25,5 L13,5 C11.9456382,5 11.0818349,5.81587779 11.0054857,6.85073766 L11,7 L11,9 L19,9 C21.209139,9 23,10.790861 23,13 L23,21 L25,21 C26.0543618,21 26.9181651,20.1841222 26.9945143,19.1492623 L27,19 L27,7 C27,5.9456382 26.1841222,5.08183488 25.1492623,5.00548574 L25,5 Z M18,18 C18.5522847,18 19,18.4477153 19,19 C19,19.5522847 18.5522847,20 18,20 L8,20 C7.44771525,20 7,19.5522847 7,19 C7,18.4477153 7.44771525,18 8,18 L18,18 Z M8,14 L14,14 C14.5522847,14 15,14.4477153 15,15 C15,15.5522847 14.5522847,16 14,16 L8,16 C7.44771525,16 7,15.5522847 7,15 C7,14.4477153 7.44771525,14 8,14 Z" id="形状结合" fill="#0678FF" fill-rule="nonzero"></path>
            </g>
        </g>
    </g>
</svg>