<?xml version="1.0" encoding="UTF-8"?>
<svg width="68px" height="20px" viewBox="0 0 68 20" version="1.1" xmlns="http://www.w3.org/2000/svg" xmlns:xlink="http://www.w3.org/1999/xlink">
    <title>二级市场基础版-英文</title>
    <defs>
        <path d="M2,0 L64,0 L64,0 L50.608544,20 L2,20 C0.8954305,20 1.3527075e-16,19.1045695 0,18 L0,2 C-1.3527075e-16,0.8954305 0.8954305,2.02906125e-16 2,0 Z" id="path-1"></path>
        <linearGradient x1="100%" y1="54.3252595%" x2="0%" y2="45.6747405%" id="linearGradient-3">
            <stop stop-color="#FFFFFF" stop-opacity="0" offset="0%"></stop>
            <stop stop-color="#FFFFFF" offset="100%"></stop>
        </linearGradient>
        <path d="M30.162,13.964 C30.4326667,13.964 30.6613333,13.8753333 30.848,13.698 C31.0346667,13.5206667 31.1606667,13.2966667 31.226,13.026 L31.226,13.026 L31.632,10.338 L30.96,9.792 L31.772,9.26 L32.178,6.04 L23.162,6.04 L23.568,6.572 L22.63,13.964 L30.162,13.964 Z M29.084,9.12 L25.99,9.12 L26.13,7.384 L29.35,7.384 L29.084,9.12 Z M28.678,12.62 L25.458,12.62 L25.724,10.464 L28.944,10.464 L28.678,12.62 Z M40.494,13.964 L39.948,13.292 L40.76,8.056 L34.18,8.056 L33.774,9.932 L36.462,9.932 L36.588,9.4 L38.016,9.4 L37.806,10.464 L33.774,10.464 L33.368,13.026 C33.368,13.2966667 33.4356667,13.5206667 33.571,13.698 C33.7063333,13.8753333 33.9093333,13.964 34.18,13.964 L34.18,13.964 L40.494,13.964 Z M37.4,12.62 L36.056,12.62 L36.196,11.808 L37.54,11.808 L37.4,12.62 Z M47.186,13.964 C47.4566667,13.964 47.7086667,13.8753333 47.942,13.698 C48.1753333,13.5206667 48.3246667,13.2966667 48.39,13.026 L48.39,13.026 L48.67,10.338 L44.764,10.338 L44.904,9.4 L46.514,9.4 L46.472,9.792 L48.796,9.792 L49.062,8.056 L42.622,8.056 L42.076,11.682 L46.108,11.682 L45.982,12.62 L42.482,12.62 L42.076,12.088 L41.81,13.964 L47.186,13.964 Z M53.682,7.65 L53.948,6.04 L51.26,6.04 L51.12,7.65 L53.682,7.65 Z M52.87,13.964 L53.682,8.056 L50.588,8.056 L50.994,8.448 L50.182,13.964 L52.87,13.964 Z M62.054,13.964 L62.32,12.088 L61.648,12.62 L57.896,12.62 L58.428,9.4 L62.726,9.4 L62.866,8.056 L56.006,8.056 L55.068,13.964 L62.054,13.964 Z" id="path-4"></path>
        <filter x="-1.2%" y="-6.3%" width="102.5%" height="125.2%" filterUnits="objectBoundingBox" id="filter-5">
            <feOffset dx="0" dy="1" in="SourceAlpha" result="shadowOffsetOuter1"></feOffset>
            <feColorMatrix values="0 0 0 0 0   0 0 0 0 0   0 0 0 0 0  0 0 0 0.2 0" type="matrix" in="shadowOffsetOuter1"></feColorMatrix>
        </filter>
    </defs>
    <g id="服务包" stroke="none" stroke-width="1" fill="none" fill-rule="evenodd">
        <g id="二级市场基础版-英文">
            <path d="M2,0 L66,0 C67.1045695,-2.02906125e-16 68,0.8954305 68,2 L68,18 C68,19.1045695 67.1045695,20 66,20 L2,20 C0.8954305,20 1.3527075e-16,19.1045695 0,18 L0,2 C-1.3527075e-16,0.8954305 0.8954305,2.02906125e-16 2,0 Z" id="矩形" fill="#92999C"></path>
            <g id="矩形">
                <mask id="mask-2" fill="white">
                    <use xlink:href="#path-1"></use>
                </mask>
                <g id="蒙版"></g>
                <path d="M2,0 L65.7777778,0 C67.0050772,-7.85587742e-15 68,0.994922778 68,2.22222222 L68,17.7777778 C68,19.0050772 67.0050772,20 65.7777778,20 L2,20 C0.8954305,20 1.3527075e-16,19.1045695 0,18 L0,2 C-1.3527075e-16,0.8954305 0.8954305,2.02906125e-16 2,0 Z" fill="url(#linearGradient-3)" opacity="0.24" mask="url(#mask-2)"></path>
            </g>
            <g id="Basic" fill-rule="nonzero">
                <use fill="black" fill-opacity="1" filter="url(#filter-5)" xlink:href="#path-4"></use>
                <use fill="#FFFFFF" xlink:href="#path-4"></use>
            </g>
            <g id="二级" transform="translate(4.000000, 2.000000)">
                <rect id="矩形" x="0" y="0" width="15.2380952" height="15.2380952"></rect>
                <path d="M7.61904762,0.952380952 C11.300946,0.952380952 14.2857143,3.93714929 14.2857143,7.61904762 C14.2857143,11.300946 11.300946,14.2857143 7.61904762,14.2857143 C3.93714929,14.2857143 0.952380952,11.300946 0.952380952,7.61904762 C0.952380952,3.93714929 3.93714929,0.952380952 7.61904762,0.952380952 Z M7.61904762,1.9047619 C4.46313476,1.9047619 1.9047619,4.46313476 1.9047619,7.61904762 C1.9047619,10.7749605 4.46313476,13.3333333 7.61904762,13.3333333 C10.7749605,13.3333333 13.3333333,10.7749605 13.3333333,7.61904762 C13.3333333,4.46313476 10.7749605,1.9047619 7.61904762,1.9047619 Z M6.9047619,3.80952381 C7.16775464,3.80952381 7.38095238,4.02272155 7.38095238,4.28571429 C7.38095238,4.54870702 7.16775464,4.76190476 6.9047619,4.76190476 L6.42838095,4.76138095 L6.42838095,10.475381 L6.9047619,10.4761905 C7.16775464,10.4761905 7.38095238,10.6893882 7.38095238,10.952381 C7.38095238,11.2153737 7.16775464,11.4285714 6.9047619,11.4285714 L5,11.4285714 C4.73700726,11.4285714 4.52380952,11.2153737 4.52380952,10.952381 C4.52380952,10.6893882 4.73700726,10.4761905 5,10.4761905 L5.47538095,10.475381 L5.47538095,4.76138095 L5,4.76190476 C4.73700726,4.76190476 4.52380952,4.54870702 4.52380952,4.28571429 C4.52380952,4.02272155 4.73700726,3.80952381 5,3.80952381 L6.9047619,3.80952381 Z M8.33333333,11.4285714 C8.0703406,11.4285714 7.85714286,11.2153737 7.85714286,10.952381 C7.85714286,10.6893882 8.0703406,10.4761905 8.33333333,10.4761905 L8.80938095,10.475381 L8.80938095,4.76138095 L8.33333333,4.76190476 C8.0703406,4.76190476 7.85714286,4.54870702 7.85714286,4.28571429 C7.85714286,4.02272155 8.0703406,3.80952381 8.33333333,3.80952381 L10.2380952,3.80952381 C10.501088,3.80952381 10.7142857,4.02272155 10.7142857,4.28571429 C10.7142857,4.54870702 10.501088,4.76190476 10.2380952,4.76190476 L9.76138095,4.76138095 L9.76138095,10.475381 L10.2380952,10.4761905 C10.501088,10.4761905 10.7142857,10.6893882 10.7142857,10.952381 C10.7142857,11.2153737 10.501088,11.4285714 10.2380952,11.4285714 L8.33333333,11.4285714 Z" id="形状结合" fill="#FFFFFF" fill-rule="nonzero"></path>
            </g>
        </g>
    </g>
</svg>