<?xml version="1.0" encoding="UTF-8"?>
<svg width="65px" height="20px" viewBox="0 0 65 20" version="1.1" xmlns="http://www.w3.org/2000/svg" xmlns:xlink="http://www.w3.org/1999/xlink">
    <title>二级市场全量版-中文</title>
    <defs>
        <path d="M2,0 L61,0 L61,0 L47.608544,20 L2,20 C0.8954305,20 1.3527075e-16,19.1045695 0,18 L0,2 C-1.3527075e-16,0.8954305 0.8954305,2.02906125e-16 2,0 Z" id="path-1"></path>
        <linearGradient x1="100%" y1="54.7337278%" x2="0%" y2="45.2662722%" id="linearGradient-3">
            <stop stop-color="#FFFFFF" stop-opacity="0" offset="0%"></stop>
            <stop stop-color="#FFFFFF" offset="100%"></stop>
        </linearGradient>
        <path d="M33.48,14.792 L33.662,13.462 L29.406,13.462 L29.616,11.992 L32.542,11.992 L32.724,10.662 L29.798,10.662 L29.966,9.472 L32.626,9.472 L32.682,9.08 L34.558,9.08 L31.94,4.95 L25.948,4.95 L26.27,5.342 L22.854,9.08 L24.702,9.08 L24.646,9.472 L27.306,9.472 L27.138,10.662 L24.212,10.662 L24.03,11.992 L26.956,11.992 L26.746,13.462 L22.49,13.462 L22.308,14.792 L33.48,14.792 Z M31.31,8.142 L26.368,8.142 L28.076,6.28 L30.134,6.28 L31.31,8.142 Z M47.13,8.142 L47.536,5.202 L36.896,5.202 L36.49,8.142 L47.13,8.142 Z M45.254,6.28 L38.87,6.28 L38.912,6 L45.296,6 L45.254,6.28 Z M45.114,7.344 L38.73,7.344 L38.758,7.078 L45.142,7.078 L45.114,7.344 Z M47.508,9.206 L47.62,8.408 L35.916,8.408 L35.804,9.206 L47.508,9.206 Z M46.724,14.778 L46.864,13.728 L42.342,13.728 L42.384,13.462 L46.64,13.462 L46.752,12.664 L42.496,12.664 L42.524,12.398 L46.528,12.398 L46.934,9.472 L36.294,9.472 L35.888,12.398 L39.864,12.398 L39.836,12.664 L35.58,12.664 L35.468,13.462 L39.724,13.462 L39.682,13.728 L35.16,13.728 L35.02,14.778 L46.724,14.778 Z M44.652,10.536 L42.79,10.536 L42.818,10.27 L44.694,10.27 L44.652,10.536 Z M40.13,10.536 L38.268,10.536 L38.31,10.27 L40.158,10.27 L40.13,10.536 Z M44.512,11.6 L42.636,11.6 L42.678,11.334 L44.54,11.334 L44.512,11.6 Z M39.976,11.6 L38.128,11.6 L38.156,11.334 L40.018,11.334 L39.976,11.6 Z M49.832,15.03 L50.518,11.222 L51.204,11.222 L50.658,15.03 L52.562,15.03 L53.318,9.738 L50.798,9.738 L50.938,8.94 L53.794,8.94 L53.962,7.666 L53.528,7.666 L53.92,4.95 L52.198,4.95 L51.806,7.666 L51.176,7.666 L51.624,5.216 L49.146,5.216 L49.482,5.734 L47.774,15.03 L49.832,15.03 Z M54.914,15.002 L56.048,9.01 L58.344,9.01 L58.19,10.13 L57.742,10.9 L57.434,10.032 L57.49,9.64 L56.062,9.64 L55.922,10.606 L56.552,12.398 L55.04,15.002 L56.72,15.002 L57.532,13.546 L58.218,14.988 L59.926,14.988 L58.778,11.992 L59.828,10.242 L60.178,7.722 L56.3,7.722 L56.524,6.532 L60.444,6.35 L60.626,5.02 L54.928,5.202 L53.094,15.002 L54.914,15.002 Z" id="path-4"></path>
        <filter x="-1.3%" y="-5.0%" width="102.6%" height="119.8%" filterUnits="objectBoundingBox" id="filter-5">
            <feOffset dx="0" dy="1" in="SourceAlpha" result="shadowOffsetOuter1"></feOffset>
            <feColorMatrix values="0 0 0 0 0   0 0 0 0 0   0 0 0 0 0  0 0 0 0.2 0" type="matrix" in="shadowOffsetOuter1"></feColorMatrix>
        </filter>
    </defs>
    <g id="服务包" stroke="none" stroke-width="1" fill="none" fill-rule="evenodd">
        <g id="二级市场全量版-中文">
            <path d="M2,0 L63,0 C64.1045695,-2.02906125e-16 65,0.8954305 65,2 L65,18 C65,19.1045695 64.1045695,20 63,20 L2,20 C0.8954305,20 1.3527075e-16,19.1045695 0,18 L0,2 C-1.3527075e-16,0.8954305 0.8954305,2.02906125e-16 2,0 Z" id="矩形" fill="#CC3845"></path>
            <g id="矩形">
                <mask id="mask-2" fill="white">
                    <use xlink:href="#path-1"></use>
                </mask>
                <g id="蒙版"></g>
                <path d="M2,0 L62.7777778,0 C64.0050772,-6.6954046e-16 65,0.994922778 65,2.22222222 L65,17.7777778 C65,19.0050772 64.0050772,20 62.7777778,20 L2,20 C0.8954305,20 1.3527075e-16,19.1045695 0,18 L0,2 C-1.3527075e-16,0.8954305 0.8954305,2.02906125e-16 2,0 Z" fill="url(#linearGradient-3)" opacity="0.24" mask="url(#mask-2)"></path>
            </g>
            <g id="全量版" fill-rule="nonzero">
                <use fill="black" fill-opacity="1" filter="url(#filter-5)" xlink:href="#path-4"></use>
                <use fill="#FFFFFF" xlink:href="#path-4"></use>
            </g>
            <g id="二级" transform="translate(4.000000, 2.000000)">
                <rect id="矩形" x="0" y="0" width="15.2380952" height="15.2380952"></rect>
                <path d="M7.61904762,0.952380952 C11.300946,0.952380952 14.2857143,3.93714929 14.2857143,7.61904762 C14.2857143,11.300946 11.300946,14.2857143 7.61904762,14.2857143 C3.93714929,14.2857143 0.952380952,11.300946 0.952380952,7.61904762 C0.952380952,3.93714929 3.93714929,0.952380952 7.61904762,0.952380952 Z M7.61904762,1.9047619 C4.46313476,1.9047619 1.9047619,4.46313476 1.9047619,7.61904762 C1.9047619,10.7749605 4.46313476,13.3333333 7.61904762,13.3333333 C10.7749605,13.3333333 13.3333333,10.7749605 13.3333333,7.61904762 C13.3333333,4.46313476 10.7749605,1.9047619 7.61904762,1.9047619 Z M6.9047619,3.80952381 C7.16775464,3.80952381 7.38095238,4.02272155 7.38095238,4.28571429 C7.38095238,4.54870702 7.16775464,4.76190476 6.9047619,4.76190476 L6.42838095,4.76138095 L6.42838095,10.475381 L6.9047619,10.4761905 C7.16775464,10.4761905 7.38095238,10.6893882 7.38095238,10.952381 C7.38095238,11.2153737 7.16775464,11.4285714 6.9047619,11.4285714 L5,11.4285714 C4.73700726,11.4285714 4.52380952,11.2153737 4.52380952,10.952381 C4.52380952,10.6893882 4.73700726,10.4761905 5,10.4761905 L5.47538095,10.475381 L5.47538095,4.76138095 L5,4.76190476 C4.73700726,4.76190476 4.52380952,4.54870702 4.52380952,4.28571429 C4.52380952,4.02272155 4.73700726,3.80952381 5,3.80952381 L6.9047619,3.80952381 Z M8.33333333,11.4285714 C8.0703406,11.4285714 7.85714286,11.2153737 7.85714286,10.952381 C7.85714286,10.6893882 8.0703406,10.4761905 8.33333333,10.4761905 L8.80938095,10.475381 L8.80938095,4.76138095 L8.33333333,4.76190476 C8.0703406,4.76190476 7.85714286,4.54870702 7.85714286,4.28571429 C7.85714286,4.02272155 8.0703406,3.80952381 8.33333333,3.80952381 L10.2380952,3.80952381 C10.501088,3.80952381 10.7142857,4.02272155 10.7142857,4.28571429 C10.7142857,4.54870702 10.501088,4.76190476 10.2380952,4.76190476 L9.76138095,4.76138095 L9.76138095,10.475381 L10.2380952,10.4761905 C10.501088,10.4761905 10.7142857,10.6893882 10.7142857,10.952381 C10.7142857,11.2153737 10.501088,11.4285714 10.2380952,11.4285714 L8.33333333,11.4285714 Z" id="形状结合" fill="#FFFFFF" fill-rule="nonzero"></path>
            </g>
        </g>
    </g>
</svg>