<?xml version="1.0" encoding="UTF-8"?>
<svg width="59px" height="20px" viewBox="0 0 59 20" version="1.1" xmlns="http://www.w3.org/2000/svg" xmlns:xlink="http://www.w3.org/1999/xlink">
    <title>二级市场pe版-中文</title>
    <defs>
        <path d="M2,0 L55,0 L55,0 L41.608544,20 L2,20 C0.8954305,20 1.3527075e-16,19.1045695 0,18 L0,2 C-1.3527075e-16,0.8954305 0.8954305,2.02906125e-16 2,0 Z" id="path-1"></path>
        <linearGradient x1="100%" y1="55.7454754%" x2="0%" y2="44.2545246%" id="linearGradient-3">
            <stop stop-color="#FFFFFF" stop-opacity="0" offset="0%"></stop>
            <stop stop-color="#FFFFFF" offset="100%"></stop>
        </linearGradient>
        <path d="M25.178,14.064 L25.584,11.376 L30.288,11.376 C30.4933333,11.376 30.7056667,11.2873333 30.925,11.11 C31.1443333,10.9326667 31.2913333,10.7086667 31.366,10.438 L31.366,10.438 L31.898,6.14 L23.162,6.14 L23.568,6.532 L22.63,14.064 L25.178,14.064 Z M28.678,10.032 L25.85,10.032 L26.13,7.484 L29.084,7.484 L28.678,10.032 Z M40.62,14.064 L40.746,12.72 L36.042,12.72 L36.308,10.564 L40.62,10.564 L40.746,9.22 L36.588,9.22 L36.854,7.484 L41.292,7.484 L41.418,6.14 L33.76,6.14 L34.166,6.672 L33.088,14.064 L40.62,14.064 Z M44.05,15.03 L44.736,11.222 L45.422,11.222 L44.876,15.03 L46.78,15.03 L47.536,9.738 L45.016,9.738 L45.156,8.94 L48.012,8.94 L48.18,7.666 L47.746,7.666 L48.138,4.95 L46.416,4.95 L46.024,7.666 L45.394,7.666 L45.842,5.216 L43.364,5.216 L43.7,5.734 L41.992,15.03 L44.05,15.03 Z M49.132,15.002 L50.266,9.01 L52.562,9.01 L52.408,10.13 L51.96,10.9 L51.652,10.032 L51.708,9.64 L50.28,9.64 L50.14,10.606 L50.77,12.398 L49.258,15.002 L50.938,15.002 L51.75,13.546 L52.436,14.988 L54.144,14.988 L52.996,11.992 L54.046,10.242 L54.396,7.722 L50.518,7.722 L50.742,6.532 L54.662,6.35 L54.844,5.02 L49.146,5.202 L47.312,15.002 L49.132,15.002 Z" id="path-4"></path>
        <filter x="-1.6%" y="-5.0%" width="103.1%" height="119.8%" filterUnits="objectBoundingBox" id="filter-5">
            <feOffset dx="0" dy="1" in="SourceAlpha" result="shadowOffsetOuter1"></feOffset>
            <feColorMatrix values="0 0 0 0 0   0 0 0 0 0   0 0 0 0 0  0 0 0 0.2 0" type="matrix" in="shadowOffsetOuter1"></feColorMatrix>
        </filter>
    </defs>
    <g id="服务包" stroke="none" stroke-width="1" fill="none" fill-rule="evenodd">
        <g id="二级市场pe版-中文">
            <path d="M2,0 L57,0 C58.1045695,-2.02906125e-16 59,0.8954305 59,2 L59,18 C59,19.1045695 58.1045695,20 57,20 L2,20 C0.8954305,20 1.3527075e-16,19.1045695 0,18 L0,2 C-1.3527075e-16,0.8954305 0.8954305,2.02906125e-16 2,0 Z" id="矩形" fill="#476D9B"></path>
            <g id="矩形">
                <mask id="mask-2" fill="white">
                    <use xlink:href="#path-1"></use>
                </mask>
                <g id="蒙版"></g>
                <path d="M2,0 L56.7777778,0 C58.0050772,-2.2545125e-16 59,0.994922778 59,2.22222222 L59,17.7777778 C59,19.0050772 58.0050772,20 56.7777778,20 L2,20 C0.8954305,20 1.3527075e-16,19.1045695 0,18 L0,2 C-1.3527075e-16,0.8954305 0.8954305,2.02906125e-16 2,0 Z" fill="url(#linearGradient-3)" opacity="0.24" mask="url(#mask-2)"></path>
            </g>
            <g id="PE版" fill-rule="nonzero">
                <use fill="black" fill-opacity="1" filter="url(#filter-5)" xlink:href="#path-4"></use>
                <use fill="#FFFFFF" xlink:href="#path-4"></use>
            </g>
            <g id="一级" transform="translate(4.000000, 2.000000)">
                <rect id="矩形" x="0" y="0" width="16" height="16"></rect>
                <path d="M8,1 C11.8659932,1 15,4.13400675 15,8 C15,11.8659932 11.8659932,15 8,15 C4.13400675,15 1,11.8659932 1,8 C1,4.13400675 4.13400675,1 8,1 Z M8,2 C4.6862915,2 2,4.6862915 2,8 C2,11.3137085 4.6862915,14 8,14 C11.3137085,14 14,11.3137085 14,8 C14,4.6862915 11.3137085,2 8,2 Z M7,12 C6.72385763,12 6.5,11.7761424 6.5,11.5 C6.5,11.2238576 6.72385763,11 7,11 L7.5,11 L7.5,5 L7,5 C6.72385763,5 6.5,4.77614237 6.5,4.5 C6.5,4.22385763 6.72385763,4 7,4 L9,4 C9.27614237,4 9.5,4.22385763 9.5,4.5 C9.5,4.77614237 9.27614237,5 9,5 L8.5,5 L8.5,11 L9,11 C9.27614237,11 9.5,11.2238576 9.5,11.5 C9.5,11.7761424 9.27614237,12 9,12 L7,12 Z" id="形状结合" fill="#FFFFFF" fill-rule="nonzero"></path>
            </g>
        </g>
    </g>
</svg>