<?xml version="1.0" encoding="UTF-8"?>
<svg width="46px" height="20px" viewBox="0 0 46 20" version="1.1" xmlns="http://www.w3.org/2000/svg" xmlns:xlink="http://www.w3.org/1999/xlink">
    <title>二级市场pe版-英文</title>
    <defs>
        <path d="M2,0 L42,0 L42,0 L28.608544,20 L2,20 C0.8954305,20 1.3527075e-16,19.1045695 0,18 L0,2 C-1.3527075e-16,0.8954305 0.8954305,2.02906125e-16 2,0 Z" id="path-1"></path>
        <linearGradient x1="100%" y1="59.4517958%" x2="0%" y2="40.5482042%" id="linearGradient-3">
            <stop stop-color="#FFFFFF" stop-opacity="0" offset="0%"></stop>
            <stop stop-color="#FFFFFF" offset="100%"></stop>
        </linearGradient>
        <path d="M25.178,13.964 L25.584,11.276 L30.288,11.276 C30.4933333,11.276 30.7056667,11.1873333 30.925,11.01 C31.1443333,10.8326667 31.2913333,10.6086667 31.366,10.338 L31.366,10.338 L31.898,6.04 L23.162,6.04 L23.568,6.432 L22.63,13.964 L25.178,13.964 Z M28.678,9.932 L25.85,9.932 L26.13,7.384 L29.084,7.384 L28.678,9.932 Z M40.62,13.964 L40.746,12.62 L36.042,12.62 L36.308,10.464 L40.62,10.464 L40.746,9.12 L36.588,9.12 L36.854,7.384 L41.292,7.384 L41.418,6.04 L33.76,6.04 L34.166,6.572 L33.088,13.964 L40.62,13.964 Z" id="path-4"></path>
        <filter x="-2.7%" y="-6.3%" width="105.3%" height="125.2%" filterUnits="objectBoundingBox" id="filter-5">
            <feOffset dx="0" dy="1" in="SourceAlpha" result="shadowOffsetOuter1"></feOffset>
            <feColorMatrix values="0 0 0 0 0   0 0 0 0 0   0 0 0 0 0  0 0 0 0.2 0" type="matrix" in="shadowOffsetOuter1"></feColorMatrix>
        </filter>
    </defs>
    <g id="服务包" stroke="none" stroke-width="1" fill="none" fill-rule="evenodd">
        <g id="二级市场pe版-英文">
            <path d="M2,0 L44,0 C45.1045695,-2.02906125e-16 46,0.8954305 46,2 L46,18 C46,19.1045695 45.1045695,20 44,20 L2,20 C0.8954305,20 1.3527075e-16,19.1045695 0,18 L0,2 C-1.3527075e-16,0.8954305 0.8954305,2.02906125e-16 2,0 Z" id="矩形" fill="#476D9B"></path>
            <g id="矩形">
                <mask id="mask-2" fill="white">
                    <use xlink:href="#path-1"></use>
                </mask>
                <g id="蒙版"></g>
                <path d="M2,0 L43.7777778,0 C45.0050772,-2.2545125e-16 46,0.994922778 46,2.22222222 L46,17.7777778 C46,19.0050772 45.0050772,20 43.7777778,20 L2,20 C0.8954305,20 1.3527075e-16,19.1045695 0,18 L0,2 C-1.3527075e-16,0.8954305 0.8954305,2.02906125e-16 2,0 Z" fill="url(#linearGradient-3)" opacity="0.24" mask="url(#mask-2)"></path>
            </g>
            <g id="PE" fill-rule="nonzero">
                <use fill="black" fill-opacity="1" filter="url(#filter-5)" xlink:href="#path-4"></use>
                <use fill="#FFFFFF" xlink:href="#path-4"></use>
            </g>
            <g id="一级" transform="translate(4.000000, 2.000000)">
                <rect id="矩形" x="0" y="0" width="16" height="16"></rect>
                <path d="M8,1 C11.8659932,1 15,4.13400675 15,8 C15,11.8659932 11.8659932,15 8,15 C4.13400675,15 1,11.8659932 1,8 C1,4.13400675 4.13400675,1 8,1 Z M8,2 C4.6862915,2 2,4.6862915 2,8 C2,11.3137085 4.6862915,14 8,14 C11.3137085,14 14,11.3137085 14,8 C14,4.6862915 11.3137085,2 8,2 Z M7,12 C6.72385763,12 6.5,11.7761424 6.5,11.5 C6.5,11.2238576 6.72385763,11 7,11 L7.5,11 L7.5,5 L7,5 C6.72385763,5 6.5,4.77614237 6.5,4.5 C6.5,4.22385763 6.72385763,4 7,4 L9,4 C9.27614237,4 9.5,4.22385763 9.5,4.5 C9.5,4.77614237 9.27614237,5 9,5 L8.5,5 L8.5,11 L9,11 C9.27614237,11 9.5,11.2238576 9.5,11.5 C9.5,11.7761424 9.27614237,12 9,12 L7,12 Z" id="形状结合" fill="#FFFFFF" fill-rule="nonzero"></path>
            </g>
        </g>
    </g>
</svg>