<?xml version="1.0" encoding="UTF-8"?>
<svg width="90px" height="20px" viewBox="0 0 90 20" version="1.1" xmlns="http://www.w3.org/2000/svg" xmlns:xlink="http://www.w3.org/1999/xlink">
    <title>二级市场高级版-英文</title>
    <defs>
        <path d="M2,0 L86,0 L86,0 L72.608544,20 L2,20 C0.8954305,20 1.3527075e-16,19.1045695 0,18 L0,2 C-1.3527075e-16,0.8954305 0.8954305,2.02906125e-16 2,0 Z" id="path-1"></path>
        <linearGradient x1="100%" y1="52.4691358%" x2="0%" y2="47.5308642%" id="linearGradient-3">
            <stop stop-color="#FFFFFF" stop-opacity="0" offset="0%"></stop>
            <stop stop-color="#FFFFFF" offset="100%"></stop>
        </linearGradient>
        <path d="M25.178,13.964 L25.584,11.276 L30.288,11.276 C30.4933333,11.276 30.7056667,11.1873333 30.925,11.01 C31.1443333,10.8326667 31.2913333,10.6086667 31.366,10.338 L31.366,10.338 L31.898,6.04 L23.162,6.04 L23.568,6.432 L22.63,13.964 L25.178,13.964 Z M28.678,9.932 L25.85,9.932 L26.13,7.384 L29.084,7.384 L28.678,9.932 Z M35.706,13.964 L35.972,12.088 L40.55,8.056 L37.862,8.056 L35.972,9.932 L36.238,8.056 L33.522,8.056 L33.802,8.448 L33.018,13.964 L35.706,13.964 Z M47.62,13.964 L48.026,12.088 L47.354,12.62 L43.588,12.62 L43.728,11.542 L48.026,11.542 L48.558,8.056 L41.572,8.056 L40.9,13.026 C40.9,13.2966667 40.9676667,13.5206667 41.103,13.698 C41.2383333,13.8753333 41.4413333,13.964 41.712,13.964 L41.712,13.964 L47.62,13.964 Z M45.604,10.198 L43.994,10.198 L44.12,9.4 L45.744,9.4 L45.604,10.198 Z M52.1,13.964 L52.8,9.4 L53.864,9.4 L53.178,13.964 L55.32,13.964 L55.992,9.4 L57.07,9.4 L56.398,13.964 L58.82,13.964 L59.618,8.056 L50.21,8.056 L50.49,8.448 L49.678,13.964 L52.1,13.964 Z M64.238,7.65 L64.504,6.04 L61.816,6.04 L61.676,7.65 L64.238,7.65 Z M63.426,13.964 L64.238,8.056 L61.144,8.056 L61.55,8.448 L60.738,13.964 L63.426,13.964 Z M72.61,13.964 L73.422,8.056 L70.328,8.056 L70.734,8.448 L70.188,12.088 L68.508,12.256 L69.124,8.056 L66.03,8.056 L66.436,8.448 L65.624,13.964 L70.006,13.432 L69.922,13.964 L72.61,13.964 Z M76.964,13.964 L77.664,9.4 L78.728,9.4 L78.042,13.964 L80.184,13.964 L80.856,9.4 L81.934,9.4 L81.262,13.964 L83.684,13.964 L84.482,8.056 L75.074,8.056 L75.354,8.448 L74.542,13.964 L76.964,13.964 Z" id="path-4"></path>
        <filter x="-0.8%" y="-6.3%" width="101.6%" height="125.2%" filterUnits="objectBoundingBox" id="filter-5">
            <feOffset dx="0" dy="1" in="SourceAlpha" result="shadowOffsetOuter1"></feOffset>
            <feColorMatrix values="0 0 0 0 0   0 0 0 0 0   0 0 0 0 0  0 0 0 0.2 0" type="matrix" in="shadowOffsetOuter1"></feColorMatrix>
        </filter>
    </defs>
    <g id="服务包" stroke="none" stroke-width="1" fill="none" fill-rule="evenodd">
        <g id="二级市场高级版-英文">
            <path d="M2,0 L88,0 C89.1045695,-2.02906125e-16 90,0.8954305 90,2 L90,18 C90,19.1045695 89.1045695,20 88,20 L2,20 C0.8954305,20 1.3527075e-16,19.1045695 0,18 L0,2 C-1.3527075e-16,0.8954305 0.8954305,2.02906125e-16 2,0 Z" id="矩形" fill="#5C56AD"></path>
            <g id="矩形">
                <mask id="mask-2" fill="white">
                    <use xlink:href="#path-1"></use>
                </mask>
                <g id="蒙版"></g>
                <path d="M2,0 L87.7777778,0 C89.0050772,7.40497491e-15 90,0.994922778 90,2.22222222 L90,17.7777778 C90,19.0050772 89.0050772,20 87.7777778,20 L2,20 C0.8954305,20 1.3527075e-16,19.1045695 0,18 L0,2 C-1.3527075e-16,0.8954305 0.8954305,2.02906125e-16 2,0 Z" fill="url(#linearGradient-3)" opacity="0.24" mask="url(#mask-2)"></path>
            </g>
            <g id="Premium" fill-rule="nonzero">
                <use fill="black" fill-opacity="1" filter="url(#filter-5)" xlink:href="#path-4"></use>
                <use fill="#FFFFFF" xlink:href="#path-4"></use>
            </g>
            <g id="二级" transform="translate(4.000000, 2.000000)">
                <rect id="矩形" x="0" y="0" width="15.2380952" height="15.2380952"></rect>
                <path d="M7.61904762,0.952380952 C11.300946,0.952380952 14.2857143,3.93714929 14.2857143,7.61904762 C14.2857143,11.300946 11.300946,14.2857143 7.61904762,14.2857143 C3.93714929,14.2857143 0.952380952,11.300946 0.952380952,7.61904762 C0.952380952,3.93714929 3.93714929,0.952380952 7.61904762,0.952380952 Z M7.61904762,1.9047619 C4.46313476,1.9047619 1.9047619,4.46313476 1.9047619,7.61904762 C1.9047619,10.7749605 4.46313476,13.3333333 7.61904762,13.3333333 C10.7749605,13.3333333 13.3333333,10.7749605 13.3333333,7.61904762 C13.3333333,4.46313476 10.7749605,1.9047619 7.61904762,1.9047619 Z M6.9047619,3.80952381 C7.16775464,3.80952381 7.38095238,4.02272155 7.38095238,4.28571429 C7.38095238,4.54870702 7.16775464,4.76190476 6.9047619,4.76190476 L6.42838095,4.76138095 L6.42838095,10.475381 L6.9047619,10.4761905 C7.16775464,10.4761905 7.38095238,10.6893882 7.38095238,10.952381 C7.38095238,11.2153737 7.16775464,11.4285714 6.9047619,11.4285714 L5,11.4285714 C4.73700726,11.4285714 4.52380952,11.2153737 4.52380952,10.952381 C4.52380952,10.6893882 4.73700726,10.4761905 5,10.4761905 L5.47538095,10.475381 L5.47538095,4.76138095 L5,4.76190476 C4.73700726,4.76190476 4.52380952,4.54870702 4.52380952,4.28571429 C4.52380952,4.02272155 4.73700726,3.80952381 5,3.80952381 L6.9047619,3.80952381 Z M8.33333333,11.4285714 C8.0703406,11.4285714 7.85714286,11.2153737 7.85714286,10.952381 C7.85714286,10.6893882 8.0703406,10.4761905 8.33333333,10.4761905 L8.80938095,10.475381 L8.80938095,4.76138095 L8.33333333,4.76190476 C8.0703406,4.76190476 7.85714286,4.54870702 7.85714286,4.28571429 C7.85714286,4.02272155 8.0703406,3.80952381 8.33333333,3.80952381 L10.2380952,3.80952381 C10.501088,3.80952381 10.7142857,4.02272155 10.7142857,4.28571429 C10.7142857,4.54870702 10.501088,4.76190476 10.2380952,4.76190476 L9.76138095,4.76138095 L9.76138095,10.475381 L10.2380952,10.4761905 C10.501088,10.4761905 10.7142857,10.6893882 10.7142857,10.952381 C10.7142857,11.2153737 10.501088,11.4285714 10.2380952,11.4285714 L8.33333333,11.4285714 Z" id="形状结合" fill="#FFFFFF" fill-rule="nonzero"></path>
            </g>
        </g>
    </g>
</svg>