<?xml version="1.0" encoding="UTF-8"?>
<svg width="65px" height="20px" viewBox="0 0 65 20" version="1.1" xmlns="http://www.w3.org/2000/svg" xmlns:xlink="http://www.w3.org/1999/xlink">
    <title>二级市场高级版-中文</title>
    <defs>
        <path d="M2,0 L61,0 L61,0 L47.608544,20 L2,20 C0.8954305,20 1.3527075e-16,19.1045695 0,18 L0,2 C-1.3527075e-16,0.8954305 0.8954305,2.02906125e-16 2,0 Z" id="path-1"></path>
        <linearGradient x1="100%" y1="54.7337278%" x2="0%" y2="45.2662722%" id="linearGradient-3">
            <stop stop-color="#FFFFFF" stop-opacity="0" offset="0%"></stop>
            <stop stop-color="#FFFFFF" offset="100%"></stop>
        </linearGradient>
        <path d="M34.614,7.078 L34.81,5.748 L30.274,5.748 L30.4,4.95 L27.208,4.95 L27.656,5.482 L27.614,5.748 L23.106,5.748 L22.91,7.078 L34.614,7.078 Z M32.472,10.004 L32.822,7.484 L24.576,7.484 L24.226,10.004 L32.472,10.004 Z M29.966,8.94 L27.054,8.94 L27.11,8.534 L30.022,8.534 L29.966,8.94 Z M24.716,15.03 L25.22,11.46 L31.072,11.46 L30.722,13.994 L29.77,15.03 L32.276,15.03 C32.5373333,15.03 32.773,14.9436667 32.983,14.771 C33.193,14.5983333 33.3213333,14.3766667 33.368,14.106 L33.368,14.106 L33.886,10.396 L22.714,10.396 L22.056,15.03 L24.716,15.03 Z M30.05,14.12 L30.358,11.866 L25.822,11.866 L25.514,14.12 L30.05,14.12 Z M28.44,13.196 L27.376,13.196 L27.432,12.79 L28.496,12.79 L28.44,13.196 Z M39.374,12.706 L39.556,11.376 L37.96,11.376 L40.004,8.184 L38.408,8.184 L40.466,4.964 L37.54,4.964 L37.834,5.314 L36.014,8.184 L35.832,9.514 L36.756,9.514 L35.566,11.376 L35.384,12.706 L39.374,12.706 Z M41.18,15.03 L42.174,11.376 L42.818,12.496 L41.264,15.03 L43.532,15.03 L43.938,14.428 L44.288,15.03 L46.71,15.03 L45.24,12.426 L47.2,9.458 L47.396,8.128 L46.486,8.128 L47.354,6.546 L47.536,5.216 L40.914,5.216 L40.732,6.546 L41.544,6.546 L39.206,15.03 L41.18,15.03 Z M44.106,10.41 L43.742,9.738 L42.622,9.738 L43.504,6.546 L44.834,6.546 L43.56,9.458 L44.694,9.458 L44.106,10.41 Z M35.09,14.834 L39.108,14.568 L39.304,13.238 L35.272,13.504 L35.09,14.834 Z M49.832,15.03 L50.518,11.222 L51.204,11.222 L50.658,15.03 L52.562,15.03 L53.318,9.738 L50.798,9.738 L50.938,8.94 L53.794,8.94 L53.962,7.666 L53.528,7.666 L53.92,4.95 L52.198,4.95 L51.806,7.666 L51.176,7.666 L51.624,5.216 L49.146,5.216 L49.482,5.734 L47.774,15.03 L49.832,15.03 Z M54.914,15.002 L56.048,9.01 L58.344,9.01 L58.19,10.13 L57.742,10.9 L57.434,10.032 L57.49,9.64 L56.062,9.64 L55.922,10.606 L56.552,12.398 L55.04,15.002 L56.72,15.002 L57.532,13.546 L58.218,14.988 L59.926,14.988 L58.778,11.992 L59.828,10.242 L60.178,7.722 L56.3,7.722 L56.524,6.532 L60.444,6.35 L60.626,5.02 L54.928,5.202 L53.094,15.002 L54.914,15.002 Z" id="path-4"></path>
        <filter x="-1.3%" y="-5.0%" width="102.6%" height="119.8%" filterUnits="objectBoundingBox" id="filter-5">
            <feOffset dx="0" dy="1" in="SourceAlpha" result="shadowOffsetOuter1"></feOffset>
            <feColorMatrix values="0 0 0 0 0   0 0 0 0 0   0 0 0 0 0  0 0 0 0.2 0" type="matrix" in="shadowOffsetOuter1"></feColorMatrix>
        </filter>
    </defs>
    <g id="服务包" stroke="none" stroke-width="1" fill="none" fill-rule="evenodd">
        <g id="二级市场高级版-中文">
            <path d="M2,0 L63,0 C64.1045695,-2.02906125e-16 65,0.8954305 65,2 L65,18 C65,19.1045695 64.1045695,20 63,20 L2,20 C0.8954305,20 1.3527075e-16,19.1045695 0,18 L0,2 C-1.3527075e-16,0.8954305 0.8954305,2.02906125e-16 2,0 Z" id="矩形" fill="#5C56AD"></path>
            <g id="矩形">
                <mask id="mask-2" fill="white">
                    <use xlink:href="#path-1"></use>
                </mask>
                <g id="蒙版"></g>
                <path d="M2,0 L62.7777778,0 C64.0050772,-6.6954046e-16 65,0.994922778 65,2.22222222 L65,17.7777778 C65,19.0050772 64.0050772,20 62.7777778,20 L2,20 C0.8954305,20 1.3527075e-16,19.1045695 0,18 L0,2 C-1.3527075e-16,0.8954305 0.8954305,2.02906125e-16 2,0 Z" fill="url(#linearGradient-3)" opacity="0.24" mask="url(#mask-2)"></path>
            </g>
            <g id="高级版" fill-rule="nonzero">
                <use fill="black" fill-opacity="1" filter="url(#filter-5)" xlink:href="#path-4"></use>
                <use fill="#FFFFFF" xlink:href="#path-4"></use>
            </g>
            <g id="二级" transform="translate(4.000000, 2.000000)">
                <rect id="矩形" x="0" y="0" width="15.2380952" height="15.2380952"></rect>
                <path d="M7.61904762,0.952380952 C11.300946,0.952380952 14.2857143,3.93714929 14.2857143,7.61904762 C14.2857143,11.300946 11.300946,14.2857143 7.61904762,14.2857143 C3.93714929,14.2857143 0.952380952,11.300946 0.952380952,7.61904762 C0.952380952,3.93714929 3.93714929,0.952380952 7.61904762,0.952380952 Z M7.61904762,1.9047619 C4.46313476,1.9047619 1.9047619,4.46313476 1.9047619,7.61904762 C1.9047619,10.7749605 4.46313476,13.3333333 7.61904762,13.3333333 C10.7749605,13.3333333 13.3333333,10.7749605 13.3333333,7.61904762 C13.3333333,4.46313476 10.7749605,1.9047619 7.61904762,1.9047619 Z M6.9047619,3.80952381 C7.16775464,3.80952381 7.38095238,4.02272155 7.38095238,4.28571429 C7.38095238,4.54870702 7.16775464,4.76190476 6.9047619,4.76190476 L6.42838095,4.76138095 L6.42838095,10.475381 L6.9047619,10.4761905 C7.16775464,10.4761905 7.38095238,10.6893882 7.38095238,10.952381 C7.38095238,11.2153737 7.16775464,11.4285714 6.9047619,11.4285714 L5,11.4285714 C4.73700726,11.4285714 4.52380952,11.2153737 4.52380952,10.952381 C4.52380952,10.6893882 4.73700726,10.4761905 5,10.4761905 L5.47538095,10.475381 L5.47538095,4.76138095 L5,4.76190476 C4.73700726,4.76190476 4.52380952,4.54870702 4.52380952,4.28571429 C4.52380952,4.02272155 4.73700726,3.80952381 5,3.80952381 L6.9047619,3.80952381 Z M8.33333333,11.4285714 C8.0703406,11.4285714 7.85714286,11.2153737 7.85714286,10.952381 C7.85714286,10.6893882 8.0703406,10.4761905 8.33333333,10.4761905 L8.80938095,10.475381 L8.80938095,4.76138095 L8.33333333,4.76190476 C8.0703406,4.76190476 7.85714286,4.54870702 7.85714286,4.28571429 C7.85714286,4.02272155 8.0703406,3.80952381 8.33333333,3.80952381 L10.2380952,3.80952381 C10.501088,3.80952381 10.7142857,4.02272155 10.7142857,4.28571429 C10.7142857,4.54870702 10.501088,4.76190476 10.2380952,4.76190476 L9.76138095,4.76138095 L9.76138095,10.475381 L10.2380952,10.4761905 C10.501088,10.4761905 10.7142857,10.6893882 10.7142857,10.952381 C10.7142857,11.2153737 10.501088,11.4285714 10.2380952,11.4285714 L8.33333333,11.4285714 Z" id="形状结合" fill="#FFFFFF" fill-rule="nonzero"></path>
            </g>
        </g>
    </g>
</svg>