<?xml version="1.0" encoding="UTF-8"?>
<svg width="95px" height="20px" viewBox="0 0 95 20" version="1.1" xmlns="http://www.w3.org/2000/svg" xmlns:xlink="http://www.w3.org/1999/xlink">
    <title>二级市场标准版-英文</title>
    <defs>
        <path d="M2,0 L91,0 L91,0 L77.608544,20 L2,20 C0.8954305,20 1.3527075e-16,19.1045695 0,18 L0,2 C-1.3527075e-16,0.8954305 0.8954305,2.02906125e-16 2,0 Z" id="path-1"></path>
        <linearGradient x1="100%" y1="52.2160665%" x2="0%" y2="47.7839335%" id="linearGradient-3">
            <stop stop-color="#FFFFFF" stop-opacity="0" offset="0%"></stop>
            <stop stop-color="#FFFFFF" offset="100%"></stop>
        </linearGradient>
        <path d="M29.616,14.16 C29.756,14.16 29.889,14.1366667 30.015,14.09 C30.141,14.0433333 30.2553333,13.978 30.358,13.894 C30.4606667,13.81 30.5423333,13.7096667 30.603,13.593 C30.6636667,13.4763333 30.694,13.3526667 30.694,13.222 L30.694,13.222 L31.226,9.596 L25.85,9.596 L26.256,7.58 L28.818,7.58 L28.678,8.518 L31.366,8.518 L31.632,6.236 L23.708,6.236 L23.036,10.94 L28.412,10.94 L28.146,12.55 L23.302,12.55 L22.896,12.004 L22.63,14.16 L29.616,14.16 Z M37.12,14.16 L37.386,12.816 L36.042,12.816 L36.504,9.596 L38.058,9.596 L38.338,8.252 L36.672,8.252 L36.854,7.034 L33.9,7.034 L34.166,7.44 L34.054,8.252 L32.962,8.252 L32.822,9.596 L33.9,9.596 L33.354,13.222 C33.2886667,13.4926667 33.34,13.7166667 33.508,13.894 C33.676,14.0713333 33.8953333,14.16 34.166,14.16 L34.166,14.16 L37.12,14.16 Z M46.304,14.16 L45.758,13.488 L46.57,8.252 L39.99,8.252 L39.584,10.128 L42.272,10.128 L42.398,9.596 L43.826,9.596 L43.616,10.66 L39.584,10.66 L39.178,13.222 C39.178,13.4926667 39.2456667,13.7166667 39.381,13.894 C39.5163333,14.0713333 39.7193333,14.16 39.99,14.16 L39.99,14.16 L46.304,14.16 Z M43.21,12.816 L41.866,12.816 L42.006,12.004 L43.35,12.004 L43.21,12.816 Z M50.308,14.16 L50.98,9.596 L52.59,9.596 L51.918,14.16 L54.606,14.16 L55.418,8.252 L48.026,8.252 L48.432,8.644 L47.62,14.16 L50.308,14.16 Z M63.398,14.16 L64.602,5.424 L61.914,5.424 L61.508,8.252 L57.21,8.252 L56.538,13.222 C56.538,13.4926667 56.6056667,13.7166667 56.741,13.894 C56.8763333,14.0713333 57.0793333,14.16 57.35,14.16 L57.35,14.16 L63.398,14.16 Z M60.878,12.816 L59.17,12.816 L59.688,9.596 L61.382,9.596 L60.878,12.816 Z M72.764,14.16 L72.218,13.488 L73.03,8.252 L66.45,8.252 L66.044,10.128 L68.732,10.128 L68.858,9.596 L70.286,9.596 L70.076,10.66 L66.044,10.66 L65.638,13.222 C65.638,13.4926667 65.7056667,13.7166667 65.841,13.894 C65.9763333,14.0713333 66.1793333,14.16 66.45,14.16 L66.45,14.16 L72.764,14.16 Z M69.67,12.816 L68.326,12.816 L68.466,12.004 L69.81,12.004 L69.67,12.816 Z M76.768,14.16 L77.034,12.284 L81.612,8.252 L78.924,8.252 L77.034,10.128 L77.3,8.252 L74.584,8.252 L74.864,8.644 L74.08,14.16 L76.768,14.16 Z M88.822,14.16 L90.026,5.424 L87.338,5.424 L86.932,8.252 L82.634,8.252 L81.962,13.222 C81.962,13.4926667 82.0296667,13.7166667 82.165,13.894 C82.3003333,14.0713333 82.5033333,14.16 82.774,14.16 L82.774,14.16 L88.822,14.16 Z M86.302,12.816 L84.594,12.816 L85.112,9.596 L86.806,9.596 L86.302,12.816 Z" id="path-4"></path>
        <filter x="-0.7%" y="-5.7%" width="101.5%" height="122.9%" filterUnits="objectBoundingBox" id="filter-5">
            <feOffset dx="0" dy="1" in="SourceAlpha" result="shadowOffsetOuter1"></feOffset>
            <feColorMatrix values="0 0 0 0 0   0 0 0 0 0   0 0 0 0 0  0 0 0 0.2 0" type="matrix" in="shadowOffsetOuter1"></feColorMatrix>
        </filter>
    </defs>
    <g id="服务包" stroke="none" stroke-width="1" fill="none" fill-rule="evenodd">
        <g id="二级市场标准版-英文">
            <path d="M2,0 L93,0 C94.1045695,-2.02906125e-16 95,0.8954305 95,2 L95,18 C95,19.1045695 94.1045695,20 93,20 L2,20 C0.8954305,20 1.3527075e-16,19.1045695 0,18 L0,2 C-1.3527075e-16,0.8954305 0.8954305,2.02906125e-16 2,0 Z" id="矩形" fill="#2C75CC"></path>
            <g id="矩形">
                <mask id="mask-2" fill="white">
                    <use xlink:href="#path-1"></use>
                </mask>
                <g id="蒙版"></g>
                <path d="M2,0 L92.7777778,0 C94.0050772,-8.29996663e-15 95,0.994922778 95,2.22222222 L95,17.7777778 C95,19.0050772 94.0050772,20 92.7777778,20 L2,20 C0.8954305,20 1.3527075e-16,19.1045695 0,18 L0,2 C-1.3527075e-16,0.8954305 0.8954305,2.02906125e-16 2,0 Z" fill="url(#linearGradient-3)" opacity="0.24" mask="url(#mask-2)"></path>
            </g>
            <g id="Standard" fill-rule="nonzero">
                <use fill="black" fill-opacity="1" filter="url(#filter-5)" xlink:href="#path-4"></use>
                <use fill="#FFFFFF" xlink:href="#path-4"></use>
            </g>
            <g id="二级" transform="translate(4.000000, 2.000000)">
                <rect id="矩形" x="0" y="0" width="15.2380952" height="15.2380952"></rect>
                <path d="M7.61904762,0.952380952 C11.300946,0.952380952 14.2857143,3.93714929 14.2857143,7.61904762 C14.2857143,11.300946 11.300946,14.2857143 7.61904762,14.2857143 C3.93714929,14.2857143 0.952380952,11.300946 0.952380952,7.61904762 C0.952380952,3.93714929 3.93714929,0.952380952 7.61904762,0.952380952 Z M7.61904762,1.9047619 C4.46313476,1.9047619 1.9047619,4.46313476 1.9047619,7.61904762 C1.9047619,10.7749605 4.46313476,13.3333333 7.61904762,13.3333333 C10.7749605,13.3333333 13.3333333,10.7749605 13.3333333,7.61904762 C13.3333333,4.46313476 10.7749605,1.9047619 7.61904762,1.9047619 Z M6.9047619,3.80952381 C7.16775464,3.80952381 7.38095238,4.02272155 7.38095238,4.28571429 C7.38095238,4.54870702 7.16775464,4.76190476 6.9047619,4.76190476 L6.42838095,4.76138095 L6.42838095,10.475381 L6.9047619,10.4761905 C7.16775464,10.4761905 7.38095238,10.6893882 7.38095238,10.952381 C7.38095238,11.2153737 7.16775464,11.4285714 6.9047619,11.4285714 L5,11.4285714 C4.73700726,11.4285714 4.52380952,11.2153737 4.52380952,10.952381 C4.52380952,10.6893882 4.73700726,10.4761905 5,10.4761905 L5.47538095,10.475381 L5.47538095,4.76138095 L5,4.76190476 C4.73700726,4.76190476 4.52380952,4.54870702 4.52380952,4.28571429 C4.52380952,4.02272155 4.73700726,3.80952381 5,3.80952381 L6.9047619,3.80952381 Z M8.33333333,11.4285714 C8.0703406,11.4285714 7.85714286,11.2153737 7.85714286,10.952381 C7.85714286,10.6893882 8.0703406,10.4761905 8.33333333,10.4761905 L8.80938095,10.475381 L8.80938095,4.76138095 L8.33333333,4.76190476 C8.0703406,4.76190476 7.85714286,4.54870702 7.85714286,4.28571429 C7.85714286,4.02272155 8.0703406,3.80952381 8.33333333,3.80952381 L10.2380952,3.80952381 C10.501088,3.80952381 10.7142857,4.02272155 10.7142857,4.28571429 C10.7142857,4.54870702 10.501088,4.76190476 10.2380952,4.76190476 L9.76138095,4.76138095 L9.76138095,10.475381 L10.2380952,10.4761905 C10.501088,10.4761905 10.7142857,10.6893882 10.7142857,10.952381 C10.7142857,11.2153737 10.501088,11.4285714 10.2380952,11.4285714 L8.33333333,11.4285714 Z" id="形状结合" fill="#FFFFFF" fill-rule="nonzero"></path>
            </g>
        </g>
    </g>
</svg>