<?xml version="1.0" encoding="UTF-8"?>
<svg width="60px" height="20px" viewBox="0 0 60 20" version="1.1" xmlns="http://www.w3.org/2000/svg" xmlns:xlink="http://www.w3.org/1999/xlink">
    <title>二级市场vc版-中文</title>
    <defs>
        <path d="M2,0 L56,0 L56,0 L42.608544,20 L2,20 C0.8954305,20 1.3527075e-16,19.1045695 0,18 L0,2 C-1.3527075e-16,0.8954305 0.8954305,2.02906125e-16 2,0 Z" id="path-1"></path>
        <linearGradient x1="100%" y1="55.5555556%" x2="0%" y2="44.4444444%" id="linearGradient-3">
            <stop stop-color="#FFFFFF" stop-opacity="0" offset="0%"></stop>
            <stop stop-color="#FFFFFF" offset="100%"></stop>
        </linearGradient>
        <path d="M28.076,14.064 L31.828,6.14 L29.14,6.14 L26.452,11.642 L25.388,6.14 L22.56,6.14 L22.826,6.532 L24.31,14.064 L28.076,14.064 Z M41.376,14.064 L41.642,12.188 L40.97,12.72 L35.734,12.72 L36.406,7.484 L42.314,7.484 L42.454,6.14 L33.984,6.14 L33.046,13.126 C33.0086667,13.2566667 33.004,13.3803333 33.032,13.497 C33.06,13.6136667 33.1136667,13.714 33.193,13.798 C33.2723333,13.882 33.368,13.9473333 33.48,13.994 C33.592,14.0406667 33.7133333,14.064 33.844,14.064 L33.844,14.064 L41.376,14.064 Z M45.086,15.03 L45.772,11.222 L46.458,11.222 L45.912,15.03 L47.816,15.03 L48.572,9.738 L46.052,9.738 L46.192,8.94 L49.048,8.94 L49.216,7.666 L48.782,7.666 L49.174,4.95 L47.452,4.95 L47.06,7.666 L46.43,7.666 L46.878,5.216 L44.4,5.216 L44.736,5.734 L43.028,15.03 L45.086,15.03 Z M50.168,15.002 L51.302,9.01 L53.598,9.01 L53.444,10.13 L52.996,10.9 L52.688,10.032 L52.744,9.64 L51.316,9.64 L51.176,10.606 L51.806,12.398 L50.294,15.002 L51.974,15.002 L52.786,13.546 L53.472,14.988 L55.18,14.988 L54.032,11.992 L55.082,10.242 L55.432,7.722 L51.554,7.722 L51.778,6.532 L55.698,6.35 L55.88,5.02 L50.182,5.202 L48.348,15.002 L50.168,15.002 Z" id="path-4"></path>
        <filter x="-1.5%" y="-5.0%" width="103.0%" height="119.8%" filterUnits="objectBoundingBox" id="filter-5">
            <feOffset dx="0" dy="1" in="SourceAlpha" result="shadowOffsetOuter1"></feOffset>
            <feColorMatrix values="0 0 0 0 0   0 0 0 0 0   0 0 0 0 0  0 0 0 0.2 0" type="matrix" in="shadowOffsetOuter1"></feColorMatrix>
        </filter>
    </defs>
    <g id="服务包" stroke="none" stroke-width="1" fill="none" fill-rule="evenodd">
        <g id="二级市场vc版-中文">
            <path d="M2,0 L58,0 C59.1045695,-2.02906125e-16 60,0.8954305 60,2 L60,18 C60,19.1045695 59.1045695,20 58,20 L2,20 C0.8954305,20 1.3527075e-16,19.1045695 0,18 L0,2 C-1.3527075e-16,0.8954305 0.8954305,2.02906125e-16 2,0 Z" id="矩形" fill="#B79777"></path>
            <g id="矩形">
                <mask id="mask-2" fill="white">
                    <use xlink:href="#path-1"></use>
                </mask>
                <g id="蒙版"></g>
                <path d="M2,0 L57.7777778,0 C59.0050772,3.69070306e-15 60,0.994922778 60,2.22222222 L60,17.7777778 C60,19.0050772 59.0050772,20 57.7777778,20 L2,20 C0.8954305,20 1.3527075e-16,19.1045695 0,18 L0,2 C-1.3527075e-16,0.8954305 0.8954305,2.02906125e-16 2,0 Z" fill="url(#linearGradient-3)" opacity="0.24" mask="url(#mask-2)"></path>
            </g>
            <g id="VC版" fill-rule="nonzero">
                <use fill="black" fill-opacity="1" filter="url(#filter-5)" xlink:href="#path-4"></use>
                <use fill="#FFFFFF" xlink:href="#path-4"></use>
            </g>
            <g id="一级" transform="translate(4.000000, 2.000000)">
                <rect id="矩形" x="0" y="0" width="16" height="16"></rect>
                <path d="M8,1 C11.8659932,1 15,4.13400675 15,8 C15,11.8659932 11.8659932,15 8,15 C4.13400675,15 1,11.8659932 1,8 C1,4.13400675 4.13400675,1 8,1 Z M8,2 C4.6862915,2 2,4.6862915 2,8 C2,11.3137085 4.6862915,14 8,14 C11.3137085,14 14,11.3137085 14,8 C14,4.6862915 11.3137085,2 8,2 Z M7,12 C6.72385763,12 6.5,11.7761424 6.5,11.5 C6.5,11.2238576 6.72385763,11 7,11 L7.5,11 L7.5,5 L7,5 C6.72385763,5 6.5,4.77614237 6.5,4.5 C6.5,4.22385763 6.72385763,4 7,4 L9,4 C9.27614237,4 9.5,4.22385763 9.5,4.5 C9.5,4.77614237 9.27614237,5 9,5 L8.5,5 L8.5,11 L9,11 C9.27614237,11 9.5,11.2238576 9.5,11.5 C9.5,11.7761424 9.27614237,12 9,12 L7,12 Z" id="形状结合" fill="#FFFFFF" fill-rule="nonzero"></path>
            </g>
        </g>
    </g>
</svg>