<?xml version="1.0" encoding="UTF-8"?>
<svg width="48px" height="20px" viewBox="0 0 48 20" version="1.1" xmlns="http://www.w3.org/2000/svg" xmlns:xlink="http://www.w3.org/1999/xlink">
    <title>二级市场vc版-英文</title>
    <defs>
        <path d="M2,0 L44,0 L44,0 L30.608544,20 L2,20 C0.8954305,20 1.3527075e-16,19.1045695 0,18 L0,2 C-1.3527075e-16,0.8954305 0.8954305,2.02906125e-16 2,0 Z" id="path-1"></path>
        <linearGradient x1="100%" y1="58.6805556%" x2="0%" y2="41.3194444%" id="linearGradient-3">
            <stop stop-color="#FFFFFF" stop-opacity="0" offset="0%"></stop>
            <stop stop-color="#FFFFFF" offset="100%"></stop>
        </linearGradient>
        <path d="M28.076,13.964 L31.828,6.04 L29.14,6.04 L26.452,11.542 L25.388,6.04 L22.56,6.04 L22.826,6.432 L24.31,13.964 L28.076,13.964 Z M41.376,13.964 L41.642,12.088 L40.97,12.62 L35.734,12.62 L36.406,7.384 L42.314,7.384 L42.454,6.04 L33.984,6.04 L33.046,13.026 C33.0086667,13.1566667 33.004,13.2803333 33.032,13.397 C33.06,13.5136667 33.1136667,13.614 33.193,13.698 C33.2723333,13.782 33.368,13.8473333 33.48,13.894 C33.592,13.9406667 33.7133333,13.964 33.844,13.964 L33.844,13.964 L41.376,13.964 Z" id="path-4"></path>
        <filter x="-2.5%" y="-6.3%" width="105.0%" height="125.2%" filterUnits="objectBoundingBox" id="filter-5">
            <feOffset dx="0" dy="1" in="SourceAlpha" result="shadowOffsetOuter1"></feOffset>
            <feColorMatrix values="0 0 0 0 0   0 0 0 0 0   0 0 0 0 0  0 0 0 0.2 0" type="matrix" in="shadowOffsetOuter1"></feColorMatrix>
        </filter>
    </defs>
    <g id="服务包" stroke="none" stroke-width="1" fill="none" fill-rule="evenodd">
        <g id="二级市场vc版-英文">
            <path d="M2,0 L46,0 C47.1045695,-2.02906125e-16 48,0.8954305 48,2 L48,18 C48,19.1045695 47.1045695,20 46,20 L2,20 C0.8954305,20 1.3527075e-16,19.1045695 0,18 L0,2 C-1.3527075e-16,0.8954305 0.8954305,2.02906125e-16 2,0 Z" id="矩形" fill="#B79777"></path>
            <g id="矩形">
                <mask id="mask-2" fill="white">
                    <use xlink:href="#path-1"></use>
                </mask>
                <g id="蒙版"></g>
                <path d="M2,0 L45.7777778,0 C47.0050772,-5.02978398e-15 48,0.994922778 48,2.22222222 L48,17.7777778 C48,19.0050772 47.0050772,20 45.7777778,20 L2,20 C0.8954305,20 1.3527075e-16,19.1045695 0,18 L0,2 C-1.3527075e-16,0.8954305 0.8954305,2.02906125e-16 2,0 Z" fill="url(#linearGradient-3)" opacity="0.24" mask="url(#mask-2)"></path>
            </g>
            <g id="VC" fill-rule="nonzero">
                <use fill="black" fill-opacity="1" filter="url(#filter-5)" xlink:href="#path-4"></use>
                <use fill="#FFFFFF" xlink:href="#path-4"></use>
            </g>
            <g id="一级" transform="translate(4.000000, 2.000000)">
                <rect id="矩形" x="0" y="0" width="16" height="16"></rect>
                <path d="M8,1 C11.8659932,1 15,4.13400675 15,8 C15,11.8659932 11.8659932,15 8,15 C4.13400675,15 1,11.8659932 1,8 C1,4.13400675 4.13400675,1 8,1 Z M8,2 C4.6862915,2 2,4.6862915 2,8 C2,11.3137085 4.6862915,14 8,14 C11.3137085,14 14,11.3137085 14,8 C14,4.6862915 11.3137085,2 8,2 Z M7,12 C6.72385763,12 6.5,11.7761424 6.5,11.5 C6.5,11.2238576 6.72385763,11 7,11 L7.5,11 L7.5,5 L7,5 C6.72385763,5 6.5,4.77614237 6.5,4.5 C6.5,4.22385763 6.72385763,4 7,4 L9,4 C9.27614237,4 9.5,4.22385763 9.5,4.5 C9.5,4.77614237 9.27614237,5 9,5 L8.5,5 L8.5,11 L9,11 C9.27614237,11 9.5,11.2238576 9.5,11.5 C9.5,11.7761424 9.27614237,12 9,12 L7,12 Z" id="形状结合" fill="#FFFFFF" fill-rule="nonzero"></path>
            </g>
        </g>
    </g>
</svg>